<svg width="44" height="44" viewBox="0 0 44 44" fill="none" xmlns="http://www.w3.org/2000/svg">
<rect width="44" height="44" fill="#1E1E1E"/>
<g clip-path="url(#clip0_0_1)">
<rect width="390" height="844" transform="translate(-271 -718)" fill="white"/>
<rect x="-230" y="-15" width="308" height="74" rx="10" fill="black"/>
<path d="M3 12C3 9.23858 5.23858 7 8 7H32C37.5228 7 42 11.4772 42 17V29C42 32.866 38.866 36 35 36H8C5.23858 36 3 33.7614 3 31V12Z" fill="white"/>
<path d="M41.3233 11.77C41.1056 10.8999 40.662 10.1027 40.0375 9.45892C39.413 8.81512 38.6297 8.34752 37.7667 8.10334C34.6133 7.33334 22 7.33334 22 7.33334C22 7.33334 9.38666 7.33334 6.23333 8.17668C5.37028 8.42085 4.58696 8.88845 3.96247 9.53225C3.33798 10.1761 2.89444 10.9733 2.67666 11.8433C2.09956 15.0435 1.81726 18.2899 1.83333 21.5417C1.81276 24.8179 2.09507 28.0891 2.67666 31.3133C2.91676 32.1564 3.37023 32.9233 3.99326 33.5399C4.6163 34.1565 5.38784 34.602 6.23333 34.8333C9.38666 35.6767 22 35.6767 22 35.6767C22 35.6767 34.6133 35.6767 37.7667 34.8333C38.6297 34.5892 39.413 34.1216 40.0375 33.4778C40.662 32.834 41.1056 32.0368 41.3233 31.1667C41.896 27.9906 42.1783 24.769 42.1667 21.5417C42.1872 18.2654 41.9049 14.9943 41.3233 11.77V11.77Z" stroke="#14181F" stroke-width="2" stroke-linecap="round" stroke-linejoin="round"/>
<path d="M17.875 27.5367L28.4167 21.5417L17.875 15.5467V27.5367Z" stroke="#14181F" stroke-width="2" stroke-linecap="round" stroke-linejoin="round"/>
</g>
<defs>
<clipPath id="clip0_0_1">
<rect width="390" height="844" fill="white" transform="translate(-271 -718)"/>
</clipPath>
</defs>
</svg>
