<svg width="56" height="52" viewBox="0 0 56 52" fill="none" xmlns="http://www.w3.org/2000/svg">
<rect width="56" height="52" fill="#1E1E1E"/>
<g clip-path="url(#clip0_0_1)">
<rect width="390" height="844" transform="translate(-262 -575)" fill="white"/>
<rect x="-221" y="-12" width="308" height="74" rx="10" fill="black"/>
<path d="M12 11C12 8.23858 14.2386 6 17 6H26C36.4934 6 45 14.5066 45 25V41C45 43.7614 42.7614 46 40 46H17C14.2386 46 12 43.7614 12 41V11Z" fill="white"/>
<path d="M16.3333 45.5C13.756 45.5 11.6667 43.5599 11.6667 41.1667V10.8333C11.6667 8.4401 13.756 6.5 16.3333 6.5H32.6667L44.3333 17.3333V41.1667C44.3333 43.5599 42.244 45.5 39.6667 45.5H16.3333Z" stroke="#14181F" stroke-width="2" stroke-linecap="round" stroke-linejoin="round"/>
<path d="M30.3333 6.5V19.5H44.3333" stroke="#14181F" stroke-width="2" stroke-linejoin="round"/>
<path d="M21 28.1667H35" stroke="#14181F" stroke-width="2" stroke-linecap="round" stroke-linejoin="round"/>
<path d="M21 36.8333H35" stroke="#14181F" stroke-width="2" stroke-linecap="round" stroke-linejoin="round"/>
</g>
<defs>
<clipPath id="clip0_0_1">
<rect width="390" height="844" fill="white" transform="translate(-262 -575)"/>
</clipPath>
</defs>
</svg>
