<svg width="276" height="226" viewBox="0 0 276 226" fill="none" xmlns="http://www.w3.org/2000/svg">
<path d="M105.5 32.5V12.5" stroke="black"/>
<path d="M171.5 33V12" stroke="black"/>
<path d="M106 12L105.5 13.5L107 15L109.5 17L114 19.5L118 20.5L122.5 21.5L128 22.5H134.5H140H148L156.5 21.5L162 19.5L167.5 17L171.5 13L171 11.5L168.5 8.5L164 6.5L158 4L152 2L146 1.5L138.5 1L132.5 1.5L128 2L121.5 3L115 5L109.5 7.5L107 10.5L106 12Z" stroke="black"/>
<path d="M105.5 32.5L108.5 35.5L112.5 38L117.5 40L123 41L128 42H133.5H139.5H144L150.5 41L156 40L163.5 38L169 35.5L171.5 32.5" stroke="black"/>
<path d="M175 57.5L175.5 36" stroke="black"/>
<path d="M243.5 58V37.5" stroke="black"/>
<path d="M176 35L175.5 37L178 40L181.5 43L186 45L196 48H208.5H219L225.5 46.5L232 45L240.5 41.5L244 38L243 35.5L239.5 32L233.5 28.5L227 26.5L218 25H210.5H203L196 25.5L190 26.5L185 28L180.5 30.5L178 32.5L176 35Z" stroke="black"/>
<path d="M175 57.5L177.5 59.5L181 62L188 65L195.5 67L201 67.5H208.5H214L223 67L229 65.5L235.5 63.5L241 60.5L243.5 57.5" stroke="black"/>
<path d="M103.5 84.5V62.5" stroke="black"/>
<path d="M174 85.5V62" stroke="black"/>
<path d="M104 61.5L103.5 63.5L105 66L108.5 68L114 70.5L120.5 72.5L127.5 73.5L133 74H143.5L152 73.5L159.5 72.5L166 70L171 67L174 62.5L172 60L169 57.5L164 54.5L157.5 52.5L150.5 51L144 50.5H138H132L126 51L119.5 52L114.5 53.5L110.5 55L107.5 57.5L105 60L104 61.5Z" stroke="black"/>
<path d="M103.5 84L105.5 86.5L108 89L111 91L115.5 92.5L119.5 93.5L124.5 94.5L129.5 95H134.5H138H144L149.5 94.5L155 93.5L160.5 92.5L165.5 90L170 87.5L174 85" stroke="black"/>
<path d="M33.5 58.5V37" stroke="black"/>
<path d="M102 58L101.5 35.5" stroke="black"/>
<path d="M33.5 36V38L35 39.5L37.5 41.5L42.5 44L48 46L55 47H62H70.5H76.5L82.5 46L87.5 45L92 43L97.5 40L101.5 36L100 34.5L96.5 31L90.5 28.5L82.5 26L75.5 25H68.5H60L53.5 26L48 27L42.5 29L38.5 31L37 32L35.5 33L34.5 34.5L33.5 36Z" stroke="black"/>
<path d="M33.5 58L35 60.5L39 63L45.5 65L54 67.5L61.5 68H70.5L78 67.5L86 66L92.5 64L98 61.5L102 58" stroke="black"/>
<path d="M93.5 25L87 27.5" stroke="black"/>
<path d="M105.5 20.5L88 27" stroke="black"/>
<path d="M171.5 20.5L189.5 27" stroke="black"/>
<path d="M275 56.5L244.5 46.5" stroke="black"/>
<path d="M2.5 57L33 46" stroke="black"/>
<path d="M1.5 56.5L139.5 111V225L4.5 165L1.5 56.5Z" stroke="black"/>
<path d="M138.5 110V223.5L272.5 167L275 57.5L138.5 110Z" stroke="black"/>
</svg>
